<svg height="580pt" viewBox="0 0 580.398 580" width="580pt" xmlns="http://www.w3.org/2000/svg"><path d="m30 580.199219h65.859375l66.78125-66.78125-73-32.417969-69.640625 26.128906v63.070313c0 5.523437 4.476562 10 10 10zm0 0"/><path d="m558.199219 580.199219h11.800781c5.523438 0 10-4.476563 10-10v-42.339844l-28.808594 17.339844zm0 0"/><path d="m214.140625 410.199219 29.140625 29.140625 59.179688-11.859375-8.640626-17.28125zm0 0"/><path d="m20 485.769531 64.46875-24.179687 25.53125-25.53125v-25.859375h-80c-5.523438 0-10 4.476562-10 10zm0 0"/><path d="m540.710938 453.917969-17.480469-43.71875h-19.609375l-55.269532 46.058593-16.609374 41.53125 22.847656 22.859376 83.160156 9.238281 42.253906-25.347657v-36.53125l-32.421875-8.109374c-3.117187-.773438-5.675781-3-6.871093-5.980469zm0 0"/><path d="m217 580.199219-32.519531-21.679688c-2.066407-1.378906-3.546875-3.480469-4.152344-5.890625l-5.71875-22.871094-50.46875 50.441407zm0 0"/><path d="m311.730469 446.019531-63.230469 12.679688-7.058594 35.300781 39.097656 15.640625 55.121094-15.742187-14.609375-29.230469zm0 0"/><path d="m570 410.199219h-25.230469l12.613281 31.539062 22.617188 5.652344v-27.191406c0-5.523438-4.476562-10-10-10zm0 0"/><path d="m221.5 491.699219 7.648438-38.210938-43.289063-43.289062h-55.859375v30c0 2.652343-1.054688 5.195312-2.929688 7.070312l-19.710937 19.710938 73.789063 32.789062zm0 0"/><path d="m282.738281 529.808594c-.890625.261718-1.8125.390625-2.738281.390625-1.269531 0-2.53125-.242188-3.710938-.710938l-47.289062-18.898437-36.800781 7.359375 6.519531 26.070312 54.28125 36.179688h108.917969c-5.460938-7.160157-12.660157-15.839844-19.367188-23.332031-1.644531-1.832032-2.550781-4.207032-2.550781-6.667969v-36.742188zm0 0"/><path d="m531.628906 549.328125-77.847656-8.648437c-17.191406 17.878906-30.242188 30.570312-40.21875 39.519531h124.238281zm0 0"/><path d="m344.328125 466.5 11.851563 23.699219h57.050781l13.230469-33.082031-26.28125-6.566407zm0 0"/><path d="m472.378906 410.199219h-156.199218l19.050781 38.109375 62-17.71875c1.679687-.484375 3.460937-.515625 5.160156-.089844l35.078125 8.769531zm0 0"/><path d="m360 510.199219v36.199219c9.019531 10.023437 17.34375 20.648437 24.921875 31.800781 17.964844-14.929688 35.019531-30.917969 51.078125-47.878907l-20.140625-20.121093zm0 0"/><path d="m250 170.199219c0 44.183593-35.816406 80-80 80s-80-35.816407-80-80c0-44.183594 35.816406-80 80-80s80 35.816406 80 80zm0 0"/><path d="m170 50.199219c5.523438 0 10-4.476563 10-10v-30c0-5.523438-4.476562-10-10-10s-10 4.476562-10 10v30c0 5.523437 4.476562 10 10 10zm0 0"/><path d="m96.339844 62.621094c2.78125 4.738281 8.867187 6.351562 13.628906 3.601562 4.757812-2.75 6.40625-8.824218 3.691406-13.601562l-15-26.003906c-1.773437-3.117188-5.082031-5.046876-8.671875-5.054688-3.585937-.007812-6.90625 1.90625-8.691406 5.019531-1.789063 3.109375-1.769531 6.941407.042969 10.035157zm0 0"/><path d="m26.441406 98.859375 26 15c4.777344 2.714844 10.851563 1.066406 13.601563-3.695313 2.75-4.761718 1.140625-10.847656-3.601563-13.625l-26-15c-3.097656-1.816406-6.925781-1.832031-10.039062-.046874-3.113282 1.789062-5.027344 5.105468-5.019532 8.695312.007813 3.589844 1.9375 6.898438 5.058594 8.671875zm0 0"/><path d="m50 170.199219c0-5.523438-4.476562-10-10-10h-30c-5.523438 0-10 4.476562-10 10 0 5.523437 4.476562 10 10 10h30c5.523438 0 10-4.476563 10-10zm0 0"/><path d="m31.449219 260.199219c1.757812 0 3.480469-.460938 5-1.339844l26-15c3.121093-1.773437 5.050781-5.082031 5.058593-8.671875.007813-3.585938-1.910156-6.90625-5.019531-8.691406-3.113281-1.789063-6.941406-1.769532-10.039062.042968l-26 15c-3.917969 2.265626-5.832031 6.878907-4.660157 11.25 1.171876 4.371094 5.136719 7.410157 9.660157 7.410157zm0 0"/><path d="m85 317.429688c2.296875 1.324218 5.027344 1.683593 7.589844.992187 2.5625-.6875 4.746094-2.363281 6.070312-4.664063l15-26c2.714844-4.777343 1.066406-10.855468-3.695312-13.601562-4.757813-2.75-10.84375-1.140625-13.625 3.601562l-15 26c-1.328125 2.296876-1.691406 5.03125-1.003906 7.59375.6875 2.566407 2.363281 4.75 4.664062 6.078126zm0 0"/><path d="m160 300.199219v30c0 5.523437 4.476562 10 10 10s10-4.476563 10-10v-30c0-5.523438-4.476562-10-10-10s-10 4.476562-10 10zm0 0"/><path d="m243.660156 277.78125c-2.78125-4.742188-8.867187-6.351562-13.625-3.605469-4.761718 2.75-6.410156 8.824219-3.695312 13.605469l15 26c1.773437 3.117188 5.082031 5.046875 8.671875 5.054688 3.589843.007812 6.90625-1.90625 8.691406-5.019532 1.789063-3.109375 1.773437-6.941406-.042969-10.035156zm0 0"/><path d="m277.589844 243.859375 26 15c3.097656 1.816406 6.925781 1.832031 10.039062.046875 3.113282-1.789062 5.027344-5.105469 5.019532-8.695312-.007813-3.589844-1.9375-6.898438-5.058594-8.671876l-26-15c-4.777344-2.714843-10.855469-1.066406-13.601563 3.695313-2.75 4.757813-1.140625 10.84375 3.601563 13.625zm0 0"/><path d="m290 170.199219c0 5.523437 4.476562 10 10 10h30c5.523438 0 10-4.476563 10-10 0-5.523438-4.476562-10-10-10h-30c-5.523438 0-10 4.476562-10 10zm0 0"/><path d="m282.601562 115.199219c1.753907.003906 3.480469-.457031 5-1.339844l26-15c3.117188-1.773437 5.046876-5.082031 5.054688-8.671875.007812-3.585938-1.90625-6.90625-5.019531-8.691406-3.109375-1.789063-6.941407-1.769532-10.035157.042968l-26.003906 15c-3.917968 2.265626-5.828125 6.878907-4.65625 11.25 1.171875 4.371094 5.132813 7.410157 9.660156 7.410157zm0 0"/><path d="m230 66.277344c4.78125 2.761718 10.898438 1.125 13.660156-3.65625l15-26.003906c1.8125-3.09375 1.832032-6.925782.042969-10.035157-1.785156-3.113281-5.101563-5.027343-8.691406-5.019531-3.589844.007812-6.898438 1.9375-8.671875 5.054688l-15 26.003906c-2.761719 4.78125-1.121094 10.898437 3.660156 13.65625zm0 0"/></svg>