<svg id="Capa_1" enable-background="new 0 0 497 497" height="512" viewBox="0 0 497 497" width="512" xmlns="http://www.w3.org/2000/svg"><g><g><path d="m200.458 349.054c-30.816 3.629-109.342-2.241-138.553-81.226-25.487-68.912-11.355-110.813-3.485-122.835 3.144-4.802 10.231-4.741 13.176.186 8.631 14.437 26.365 31.926 49.711 24.329 43.772-14.244 33.974-88.868 15.809-114.476-18.165-25.607-4.164-26.779 23.437-23.97 26.19 2.666 99.121 16.138 117.16 107.963 1.521 7.741 11.483 10.171 16.291 3.916 3.65-4.748 6.509-10.924 6.199-18.479-.183-4.482 5.277-6.821 8.5-3.7 11.172 10.817 26.777 32.068 31.098 68.767 6.946 58.974.554 143.051-139.343 159.525z" fill="#cf462a"/></g><g><path d="m339.802 189.529c-4.322-36.699-19.927-57.95-31.098-68.767-3.223-3.121-8.684-.782-8.5 3.7.285 6.967-2.125 12.758-5.364 17.341 6.674 11.713 12.561 27.331 14.963 47.726 6.945 58.974.553 143.05-139.341 159.525 11.925 1.208 22.409.894 29.997 0 139.896-16.474 146.288-100.551 139.343-159.525z" fill="#ba3f2a"/></g><g><path d="m446.722 241.244c-3.351.676-6.966-1.766-7.041-5.665-1.151-59.649-45.445-76.188-61.592-80.764-17.017-4.822-25.937-5.638-17.37 12.452s6.449 66.025-22.61 70.118c-15.499 2.183-24.695-10.762-28.513-20.783-1.303-3.419-5.746-4.243-8.251-1.577-6.273 6.676-19.788 31.416-11.424 77.504 9.587 52.825 58.237 65.212 77.986 66.349 38.822 2.234 63.326-6.268 78.817-19.691v-97.943z" fill="#df6937"/></g><g><path d="m409.681 235.579c.046 2.388.598 15.555 12.415 16.513l20.835-11.374c-1.828-.913-3.204-2.75-3.25-5.139-1.151-59.649-45.445-76.188-61.592-80.764-13.309-3.771-21.664-5.091-20.576 3.166 19.582 7.676 51.198 27.325 52.168 77.598z" fill="#dd552d"/></g><g><path d="m133.585 262.034c-1.844-2.688-6.046-1.807-6.565 1.411-.871 5.402-3.789 9.37-7.062 12.212-4.314 3.745-11.033.585-10.996-5.127.435-67.762-49.376-87.834-67.577-93.501-19.181-5.972-29.286-7.159-20.087 13.631 6.884 15.556 6.483 49.907-8.028 67.808-8.355 10.308-13.27 22.971-13.27 36.241v108.565c9.308 3.139 17.785 4.654 23.865 5.16 101.648 8.475 118.304-50.266 121.877-93.116 2.223-26.668-5.789-43.998-12.157-53.284z" fill="#df6937"/></g><g><path d="m453.437 331.948c-58.094-45.351-138.734-48.299-199.986-7.312-31.219 20.891-66.705 34.223-103.655 39.159v90.322h347.204v-78.183c0-6.298-2.902-12.244-7.866-16.12z" fill="#7fcb8f"/></g><g><path d="m453.437 331.948c-51.53-40.227-120.797-47.086-178.54-19.519 50.56-13.311 105.684-2.936 148.54 30.519l43.563 34.007v77.162h30v-78.183c0-6.298-2.902-12.244-7.866-16.12z" fill="#6dc17d"/></g><g><path d="m481.242 466.997h-465.484c-8.703 0-15.758-7.055-15.758-15.758v-72.405l43.563-34.007c58.095-45.351 138.734-48.299 199.986-7.312 40.256 26.938 87.603 41.318 136.041 41.318h96.961c11.294 0 20.45 9.156 20.45 20.449v51.955c-.001 8.705-7.056 15.76-15.759 15.76z" fill="#e9a52d"/></g><g><path d="m476.55 378.835h-30c11.294 0 20.45 9.156 20.45 20.449v51.955c0 8.703-7.055 15.758-15.758 15.758h30c8.703 0 15.758-7.055 15.758-15.758v-51.955c0-11.294-9.156-20.449-20.45-20.449z" fill="#e69824"/></g><g><path d="m462.973 187.792-36.307 62.389c-11.193 19.233-.883 43.834 20.678 49.341 21.561 5.507 42.405-11.137 41.806-33.382l-1.942-72.158c-.353-13.09-17.649-17.508-24.235-6.19z" fill="#f4daa7"/></g><g><path d="m147.852 120.518-57.135 112.341c-17.613 34.632 2.786 76.499 40.915 83.971 38.129 7.472 72.822-23.598 69.583-62.317l-10.506-125.596c-1.906-22.784-32.493-28.778-42.857-8.399z" fill="#eec06b"/></g><g><path d="m201.215 254.512-10.506-125.596c-1.787-21.359-28.781-27.963-40.688-11.913 2.427 3.196 4.069 7.187 4.465 11.913l10.506 125.596c2.366 28.29-15.526 52.477-40.205 60.549 2.212.713 4.494 1.307 6.846 1.768 38.128 7.472 72.821-23.598 69.582-62.317z" fill="#ebb34c"/></g><g><path d="m236.264 204.791 1.712 67.543c.528 20.822 20.824 35.36 40.708 29.159 19.884-6.201 28.319-29.7 16.916-47.13l-36.986-56.542c-6.709-10.257-22.66-5.282-22.35 6.97z" fill="#6dc17d"/></g><g><path d="" style="fill:none;stroke:#000;stroke-width:15;stroke-linecap:round;stroke-linejoin:round;stroke-miterlimit:10"/></g><g><path d="m438.533 341.541c-.614 0-1.239-.076-1.861-.235-4.013-1.025-6.436-5.109-5.411-9.123l17.444-68.298c1.025-4.013 5.11-6.435 9.122-5.411 4.013 1.025 6.436 5.109 5.411 9.123l-17.444 68.298c-.865 3.391-3.915 5.646-7.261 5.646z" fill="#ac583e"/></g><g fill="#ac583e"><path d="m162.717 256.164-13.307 8.945 4.925-25.13c.797-4.065-1.853-8.006-5.918-8.802-4.065-.798-8.005 1.853-8.802 5.917l-27.305 139.334c-.797 4.065 1.853 8.006 5.918 8.802.487.096.972.142 1.451.142 3.513 0 6.65-2.481 7.352-6.059l18.38-93.792c.642-.21 1.269-.5 1.858-.896l23.818-16.012c3.438-2.311 4.351-6.971 2.04-10.409-2.313-3.438-6.973-4.351-10.41-2.04z"/><path d="m294.834 325.169-17.975-57.638c-1.233-3.954-5.44-6.161-9.393-4.927-3.954 1.233-6.16 5.439-4.927 9.393l17.975 57.638c1.001 3.211 3.962 5.269 7.157 5.269.74 0 1.492-.11 2.235-.342 3.955-1.233 6.161-5.439 4.928-9.393z"/></g></g></svg>